<svg width="56" height="57" viewBox="0 0 56 57" fill="none" xmlns="http://www.w3.org/2000/svg">
<path d="M0.216972 54.1611C0.47347 51.5918 0.68826 49.0183 1.01774 46.4594C1.08448 45.9355 1.4932 45.3822 1.88525 44.9861C10.2391 36.5552 18.6139 28.1452 26.9866 19.733C33.1967 13.4921 39.409 7.24899 45.6191 1.00802C46.9496 -0.326942 47.5731 -0.339516 48.9119 0.995441C50.9826 3.0597 53.0451 5.13234 55.1012 7.21127C56.3107 8.43515 56.3024 9.12464 55.0616 10.3737C47.3312 18.1487 39.5966 25.9195 31.8621 33.6925C25.0493 40.5391 18.226 47.3752 11.4299 54.2386C10.7542 54.9197 10.0494 55.3095 9.08387 55.385C6.76496 55.5673 4.4544 55.8418 2.13758 56.0514C0.905141 56.1625 0.160668 55.4017 0.216972 54.1611ZM42.9937 8.25702C42.7664 8.4624 42.5787 8.61329 42.4119 8.78304C29.8185 21.4389 17.2251 34.0948 4.63374 46.7528C4.46274 46.9247 4.20415 47.1049 4.17913 47.3061C3.96434 49.0476 3.79126 50.7954 3.59524 52.6606C5.3928 52.4845 6.98184 52.3546 8.56253 52.1492C8.89827 52.1052 9.25278 51.8391 9.50927 51.5855C13.3171 47.8174 17.1208 44.0452 20.9015 40.252C23.4206 37.7246 25.8897 35.1448 28.4046 32.6111C34.5084 26.4602 40.6247 20.3198 46.7494 14.1899C47.1081 13.8316 47.6065 13.6157 48.0215 13.3475C46.1509 11.455 44.6161 9.90214 42.9937 8.25702ZM47.252 4.05515C46.6034 4.65033 45.9695 5.23293 45.3272 5.82392C46.9913 7.48371 48.5595 9.0471 50.1276 10.6105C50.7616 10.0216 51.406 9.42222 52.0691 8.80819C50.4008 7.16307 48.8472 5.62902 47.252 4.05515Z" fill="black"/>
</svg>
