<svg width="57" height="38" viewBox="0 0 57 38" fill="none" xmlns="http://www.w3.org/2000/svg">
<path d="M19.6878 20.8404C20.4573 20.4464 21.3873 19.9016 22.3695 19.4866C23.3559 19.0696 24.3715 18.6504 25.4162 18.4576C27.8415 18.0134 29.5932 19.407 29.8393 21.8317C30.0186 23.5921 30.786 24.116 32.3917 23.3322C33.9474 22.5736 35.3967 21.5928 36.894 20.7105C39.6696 19.078 42.5328 17.6319 45.8068 17.4182C49.8586 17.1562 53.3849 18.2397 55.7706 21.8233C56.3336 22.67 56.1376 23.6068 55.3806 24.1349C54.6528 24.642 53.7227 24.5226 53.1743 23.7283C51.091 20.721 48.1236 20.2725 44.8538 20.8425C42.1324 21.3162 39.8051 22.7475 37.4821 24.1579C36.3226 24.8621 35.1757 25.5935 33.9724 26.2096C32.7421 26.8404 31.4199 27.0688 30.029 26.7398C28.0459 26.2725 26.7091 24.7866 26.682 22.7496C26.6695 21.7458 26.2733 21.4733 25.435 21.7563C22.6677 22.6909 20.2279 24.2145 17.9924 26.0755C17.7505 26.2767 17.6504 26.6707 17.5253 26.9934C16.1114 30.6252 14.2388 33.993 11.8072 37.0401C10.7083 38.417 9.40493 38.2997 8.62501 36.7279C7.95978 35.3866 8.06196 34.0014 8.61667 32.6685C9.83242 29.745 11.851 27.3937 14.0824 25.2225C14.7789 24.5435 15.2689 23.8205 15.5254 22.8775C16.9289 17.7304 17.5023 12.5352 16.4847 7.24149C15.736 3.34979 13.4422 3.67252 11.2734 5.37632C5.60125 9.83176 2.94243 15.7542 3.29486 23.0032C3.32822 23.699 3.44709 24.3905 3.54301 25.08C3.71193 26.2934 3.28443 27.0667 2.321 27.2554C1.34297 27.4461 0.585991 26.8257 0.369115 25.5746C-0.683986 19.5202 0.542198 13.9121 3.8016 8.75877C5.66798 5.80803 8.02026 3.30159 11.1691 1.70048C14.3284 0.0951768 17.4627 1.26038 18.9683 4.47937C19.8796 6.42626 20.1528 8.51567 20.132 10.603C20.0965 14.0106 19.8463 17.4119 19.6878 20.8404Z" fill="black"/>
</svg>
